<svg width="16" height="16" viewBox="0 0 16 16" fill="none" xmlns="http://www.w3.org/2000/svg">
<g clip-path="url(#clip0_3_2277)">
<rect x="1" y="1" width="3" height="1" rx="0.5" fill="#808080"/>
<rect x="1" y="4" width="5" height="1" rx="0.5" fill="#808080"/>
<rect x="1" y="7" width="8" height="1" rx="0.5" fill="#808080"/>
<rect x="1" y="10" width="11" height="1" rx="0.5" fill="#808080"/>
<rect x="1" y="13" width="14" height="1" rx="0.5" fill="#808080"/>
<path fill-rule="evenodd" clip-rule="evenodd" d="M12.0054 5.5C12.0054 5.77614 12.2292 6 12.5054 6C12.7815 6 13.0054 5.77614 13.0054 5.5L13.0054 1.69992L14.3464 3.04095C14.5417 3.23621 14.8582 3.23621 15.0535 3.04095C15.2488 2.84569 15.2488 2.5291 15.0535 2.33384L12.9322 0.21252C12.9141 0.194441 12.895 0.178036 12.875 0.163304C12.7836 0.0629661 12.6518 -2.22764e-07 12.5054 -2.35568e-07C12.3588 -2.4838e-07 12.227 0.0630553 12.1355 0.163518C12.1157 0.178198 12.0966 0.194537 12.0786 0.212535L9.95731 2.33385C9.76205 2.52912 9.76205 2.8457 9.95731 3.04096C10.1526 3.23622 10.4692 3.23622 10.6644 3.04096L12.0054 1.70001L12.0054 5.5Z" fill="#808080"/>
</g>
<defs>
<clipPath id="clip0_3_2277">
<rect width="16" height="16" fill="white"/>
</clipPath>
</defs>
</svg>
