<svg width="17" height="16" viewBox="0 0 17 16" fill="none" xmlns="http://www.w3.org/2000/svg">
<g clip-path="url(#clip0_2_2132)">
<path fill-rule="evenodd" clip-rule="evenodd" d="M14 11.5C14 11.2239 13.7762 11 13.5 11C13.2239 11 13 11.2239 13 11.5L13 14.2955L11.8621 13.1576C11.6668 12.9623 11.3503 12.9623 11.155 13.1576C10.9597 13.3528 10.9597 13.6694 11.155 13.8647L13.0778 15.7875C13.0915 15.8012 13.1059 15.814 13.1207 15.8258C13.2124 15.9324 13.3483 16 13.5 16C13.6412 16 13.7687 15.9415 13.8597 15.8474C13.8851 15.83 13.9093 15.8101 13.9319 15.7875L15.856 13.8633C16.0513 13.6681 16.0513 13.3515 15.856 13.1562C15.6607 12.961 15.3442 12.961 15.1489 13.1562L14 14.3051L14 11.5Z" fill="#001489"/>
<rect x="1" y="1" width="7" height="1" rx="0.5" fill="#001489"/>
<rect x="1" y="4" width="7" height="1" rx="0.5" fill="#001489"/>
<rect x="1" y="7" width="14" height="1" rx="0.5" fill="#001489"/>
<rect x="1" y="10" width="8" height="1" rx="0.5" fill="#001489"/>
<rect x="1" y="13" width="8" height="1" rx="0.5" fill="#001489"/>
<circle cx="13.5" cy="2.5" r="2.5" fill="#001489"/>
</g>
<defs>
<clipPath id="clip0_2_2132">
<rect width="16" height="16" fill="white"/>
</clipPath>
</defs>
</svg>
