<svg width="16" height="16" viewBox="0 0 16 16" fill="none" xmlns="http://www.w3.org/2000/svg">
<g clip-path="url(#clip0_3_2331)">
<path fill-rule="evenodd" clip-rule="evenodd" d="M12.9946 9.5C12.9946 9.22386 12.7708 9 12.4946 9C12.2185 9 11.9946 9.22386 11.9946 9.5L11.9946 13.3001L10.6536 11.9591C10.4583 11.7638 10.1418 11.7638 9.9465 11.9591C9.75123 12.1543 9.75123 12.4709 9.9465 12.6662L12.0678 14.7875C12.0859 14.8056 12.105 14.822 12.125 14.8367C12.2164 14.937 12.3482 15 12.4946 15C12.6412 15 12.773 14.9369 12.8645 14.8365C12.8843 14.8218 12.9034 14.8055 12.9214 14.7875L15.0427 12.6661C15.2379 12.4709 15.2379 12.1543 15.0427 11.959C14.8474 11.7638 14.5308 11.7638 14.3356 11.959L12.9946 13.3L12.9946 9.5Z" fill="#001489"/>
<rect x="1" y="1" width="14" height="1" rx="0.5" fill="#001489"/>
<rect x="1" y="4" width="11" height="1" rx="0.5" fill="#001489"/>
<rect x="1" y="7" width="8" height="1" rx="0.5" fill="#001489"/>
<rect x="1" y="10" width="5" height="1" rx="0.5" fill="#001489"/>
<rect x="1" y="13" width="3" height="1" rx="0.5" fill="#001489"/>
</g>
<defs>
<clipPath id="clip0_3_2331">
<rect width="16" height="16" fill="white"/>
</clipPath>
</defs>
</svg>
