<svg width="17" height="16" viewBox="0 0 17 16" fill="none" xmlns="http://www.w3.org/2000/svg">
<g clip-path="url(#clip0_2_2151)">
<rect x="1" y="1" width="7" height="1" rx="0.5" fill="#001489"/>
<rect x="1" y="4" width="7" height="1" rx="0.5" fill="#001489"/>
<rect x="1" y="7" width="14" height="1" rx="0.5" fill="#001489"/>
<rect x="1" y="10" width="8" height="1" rx="0.5" fill="#001489"/>
<rect x="1" y="13" width="8" height="1" rx="0.5" fill="#001489"/>
<circle cx="13.5" cy="2.5" r="2.5" fill="#001489"/>
<path fill-rule="evenodd" clip-rule="evenodd" d="M13 15.5C13 15.7761 13.2239 16 13.5 16C13.7762 16 14 15.7761 14 15.5L14 12.6936L15.1489 13.8425C15.3442 14.0377 15.6607 14.0377 15.856 13.8425C16.0513 13.6472 16.0513 13.3306 15.856 13.1353L13.9332 11.2125C13.9095 11.1888 13.884 11.168 13.8572 11.1501C13.7664 11.0575 13.6399 11 13.5 11C13.3468 11 13.2096 11.069 13.1179 11.1776C13.1045 11.1884 13.0916 11.2001 13.0791 11.2125L11.155 13.1367C10.9597 13.3319 10.9597 13.6485 11.155 13.8438C11.3502 14.039 11.6668 14.039 11.8621 13.8438L13 12.7058L13 15.5Z" fill="#001489"/>
</g>
<defs>
<clipPath id="clip0_2_2151">
<rect width="16" height="16" fill="white"/>
</clipPath>
</defs>
</svg>
